<svg id="cartola-branca-01" xmlns="http://www.w3.org/2000/svg" width="19.689" height="17.95" viewBox="0 0 19.689 17.95">
  <path id="Caminho_2016" data-name="Caminho 2016" d="M189.03,45.325a49.975,49.975,0,0,1-.644-7.827c-2.014-2.411-14.5.268-13.424,2.728a37.042,37.042,0,0,1,2.282,8.071c-1.944,1.407-4.923,4.344-2.309,5.944,1.16.715,3.451-.032,8.795-2.23,3.3-.725,7.034-1.273,8.737-2.4,2.121-1.4,1.412-3.4-3.437-4.285Z" transform="translate(-173.91 -36.553)" fill="none"/>
  <path id="Caminho_2017" data-name="Caminho 2017" d="M189.03,45.325a49.975,49.975,0,0,1-.644-7.827c-2.014-2.411-14.5.268-13.424,2.728a37.042,37.042,0,0,1,2.282,8.071c-1.944,1.407-4.923,4.344-2.309,5.944,1.16.715,3.451-.032,8.795-2.23,3.3-.725,7.034-1.273,8.737-2.4,2.121-1.4,1.412-3.4-3.437-4.285Z" transform="translate(-173.91 -36.553)" fill="#fdfdfd" fill-rule="evenodd"/>
  <path id="Caminho_2018" data-name="Caminho 2018" d="M207.2,122.48c.15.016.295.032.446.053a28.936,28.936,0,0,1,1.982,8.174h-.3a29.967,29.967,0,0,0-2.126-8.226Z" transform="translate(-205.799 -118.864)" fill="none"/>
  <path id="Caminho_2019" data-name="Caminho 2019" d="M207.2,122.48c.15.016.295.032.446.053a28.936,28.936,0,0,1,1.982,8.174h-.3a29.967,29.967,0,0,0-2.126-8.226Z" transform="translate(-205.799 -118.864)" fill="#fdfdfd" fill-rule="evenodd"/>
  <path id="Caminho_2020" data-name="Caminho 2020" d="M188.176,377.89c-.547,4.713,5.236.322,8.855-1.09-2.445.37-6.156,3-6.827,2.749.156-.253.516-.284.768-.424a1.416,1.416,0,0,1-1.982-1.063c.016.279.032.558.048.842a1.547,1.547,0,0,1-.494-.693,5.528,5.528,0,0,0,.2,1.063c-.387-.2-.515-.9-.569-1.385Z" transform="translate(-187.541 -362.482)" fill="none"/>
  <path id="Caminho_2021" data-name="Caminho 2021" d="M188.176,377.89c-.547,4.713,5.236.322,8.855-1.09-2.445.37-6.156,3-6.827,2.749.156-.253.516-.284.768-.424a1.416,1.416,0,0,1-1.982-1.063c.016.279.032.558.048.842a1.547,1.547,0,0,1-.494-.693,5.528,5.528,0,0,0,.2,1.063c-.387-.2-.515-.9-.569-1.385Z" transform="translate(-187.541 -362.482)" fill="#fdfdfd" fill-rule="evenodd"/>
  <path id="Caminho_2022" data-name="Caminho 2022" d="M568.134,298.06c.574,1.5-1.112,2.191-2.454,2.357C567.012,300.248,568.3,298.7,568.134,298.06Z" transform="translate(-549.194 -287.055)" fill="none"/>
  <path id="Caminho_2023" data-name="Caminho 2023" d="M568.134,298.06c.574,1.5-1.112,2.191-2.454,2.357C567.012,300.248,568.3,298.7,568.134,298.06Z" transform="translate(-549.194 -287.055)" fill="#fdfdfd" fill-rule="evenodd"/>
  <path id="Caminho_2024" data-name="Caminho 2024" d="M235.53,101.544a66.93,66.93,0,0,0,8.565-1A20.634,20.634,0,0,1,235.53,101.544Z" transform="translate(-232.937 -97.847)" fill="none"/>
  <path id="Caminho_2025" data-name="Caminho 2025" d="M235.53,101.544a66.93,66.93,0,0,0,8.565-1A20.634,20.634,0,0,1,235.53,101.544Z" transform="translate(-232.937 -97.847)" fill="#fdfdfd" fill-rule="evenodd"/>
  <path id="Caminho_2026" data-name="Caminho 2026" d="M399.88,255.892a21.3,21.3,0,0,0,5.182-1.982A10.471,10.471,0,0,1,399.88,255.892Z" transform="translate(-390.371 -244.763)" fill="none"/>
  <path id="Caminho_2027" data-name="Caminho 2027" d="M399.88,255.892a21.3,21.3,0,0,0,5.182-1.982A10.471,10.471,0,0,1,399.88,255.892Z" transform="translate(-390.371 -244.763)" fill="#fdfdfd" fill-rule="evenodd"/>
  <path id="Caminho_2028" data-name="Caminho 2028" d="M189.03,45.325a49.975,49.975,0,0,1-.644-7.827c-2.014-2.411-14.5.268-13.424,2.728a37.042,37.042,0,0,1,2.282,8.071c-1.944,1.407-4.923,4.344-2.309,5.944,1.16.715,3.451-.032,8.795-2.23,3.3-.725,7.034-1.273,8.737-2.4,2.121-1.4,1.412-3.4-3.437-4.285Z" transform="translate(-173.91 -36.553)" fill="#fff" fill-rule="evenodd"/>
  <path id="Caminho_2029" data-name="Caminho 2029" d="M207.2,122.48c.15.016.295.032.446.053a28.936,28.936,0,0,1,1.982,8.174h-.3a29.967,29.967,0,0,0-2.126-8.226Z" transform="translate(-205.799 -118.864)" fill="#1d1d1b" fill-rule="evenodd"/>
  <path id="Caminho_2030" data-name="Caminho 2030" d="M188.176,377.89c-.547,4.713,5.236.322,8.855-1.09-2.445.37-6.156,3-6.827,2.749.156-.253.516-.284.768-.424a1.416,1.416,0,0,1-1.982-1.063c.016.279.032.558.048.842a1.547,1.547,0,0,1-.494-.693,5.528,5.528,0,0,0,.2,1.063c-.387-.2-.515-.9-.569-1.385Z" transform="translate(-187.541 -362.482)" fill="#1d1d1b" fill-rule="evenodd"/>
  <path id="Caminho_2031" data-name="Caminho 2031" d="M568.134,298.06c.574,1.5-1.112,2.191-2.454,2.357C567.012,300.248,568.3,298.7,568.134,298.06Z" transform="translate(-549.194 -287.055)" fill="#1d1d1b" fill-rule="evenodd"/>
  <path id="Caminho_2032" data-name="Caminho 2032" d="M235.53,101.544a66.93,66.93,0,0,0,8.565-1A20.634,20.634,0,0,1,235.53,101.544Z" transform="translate(-232.937 -97.847)" fill="#1d1d1b" fill-rule="evenodd"/>
  <path id="Caminho_2033" data-name="Caminho 2033" d="M399.88,255.892a21.3,21.3,0,0,0,5.182-1.982A10.471,10.471,0,0,1,399.88,255.892Z" transform="translate(-390.371 -244.763)" fill="#1d1d1b" fill-rule="evenodd"/>
</svg>
